HIERARCHY
ROOT Hips
{
	OFFSET 0.00000 0.00000 0.00000
	CHANNELS 6 Xposition Yposition Zposition Zrotation Yrotation Xrotation 
	JOINT LHipJoint
	{
		OFFSET 0 0 0
		CHANNELS 3 Zrotation Yrotation Xrotation
		JOINT LeftUpLeg
		{
			OFFSET 1.41496 -1.84582 0.78394
			CHANNELS 3 Zrotation Yrotation Xrotation
			JOINT LeftLeg
			{
				OFFSET 2.58040 -7.08960 0.00000
				CHANNELS 3 Zrotation Yrotation Xrotation
				JOINT LeftFoot
				{
					OFFSET 2.64719 -7.27309 0.00000
					CHANNELS 3 Zrotation Yrotation Xrotation
					JOINT LeftToeBase
					{
						OFFSET 0.20718 -0.56921 2.20259
						CHANNELS 3 Zrotation Yrotation Xrotation
						End Site
						{
							OFFSET 0.00000 -0.00000 1.14243
						}
					}
				}
			}
		}
	}
	JOINT RHipJoint
	{
		OFFSET 0 0 0
		CHANNELS 3 Zrotation Yrotation Xrotation
		JOINT RightUpLeg
		{
			OFFSET -1.40551 -1.84582 0.78394
			CHANNELS 3 Zrotation Yrotation Xrotation
			JOINT RightLeg
			{
				OFFSET -2.56572 -7.04926 0.00000
				CHANNELS 3 Zrotation Yrotation Xrotation
				JOINT RightFoot
				{
					OFFSET -2.57974 -7.08778 0.00000
					CHANNELS 3 Zrotation Yrotation Xrotation
					JOINT RightToeBase
					{
						OFFSET -0.26704 -0.73369 2.20815
						CHANNELS 3 Zrotation Yrotation Xrotation
						End Site
						{
							OFFSET -0.00000 -0.00000 1.16246
						}
					}
				}
			}
		}
	}
	JOINT LowerBack
	{
		OFFSET 0 0 0
		CHANNELS 3 Zrotation Yrotation Xrotation
		JOINT Spine
		{
			OFFSET -0.04690 2.05196 -0.07017
			CHANNELS 3 Zrotation Yrotation Xrotation
			JOINT Spine1
			{
				OFFSET 0.04085 2.05260 0.00800
				CHANNELS 3 Zrotation Yrotation Xrotation
				JOINT Neck
				{
					OFFSET 0 0 0
					CHANNELS 3 Zrotation Yrotation Xrotation
					JOINT Neck1
					{
						OFFSET -0.03582 1.80995 0.19301
						CHANNELS 3 Zrotation Yrotation Xrotation
						JOINT Head
						{
							OFFSET 0.00952 1.80195 -0.36389
							CHANNELS 3 Zrotation Yrotation Xrotation
							End Site
							{
								OFFSET 0.00392 1.85062 -0.14494
							}
						}
					}
				}
				JOINT LeftShoulder
				{
					OFFSET 0 0 0
					CHANNELS 3 Zrotation Yrotation Xrotation
					JOINT LeftArm
					{
						OFFSET 3.55224 1.39726 -0.13667
						CHANNELS 3 Zrotation Yrotation Xrotation
						JOINT LeftForeArm
						{
							OFFSET 5.14507 -0.00000 -0.00000
							CHANNELS 3 Zrotation Yrotation Xrotation
							JOINT LeftHand
							{
								OFFSET 3.50646 -0.00000 0.00000
								CHANNELS 3 Zrotation Yrotation Xrotation
								JOINT LeftFingerBase
								{
									OFFSET 0 0 0
									CHANNELS 3 Zrotation Yrotation Xrotation
									JOINT LeftHandIndex1
									{
										OFFSET 0.62997 -0.00000 0.00000
										CHANNELS 3 Zrotation Yrotation Xrotation
										End Site
										{
											OFFSET 0.50790 -0.00000 0.00000
										}
									}
								}
								JOINT LThumb
								{
									OFFSET 0 0 0
									CHANNELS 3 Zrotation Yrotation Xrotation
									End Site
									{
										OFFSET 0.51565 -0.00000 0.51565
									}
								}
							}
						}
					}
				}
				JOINT RightShoulder
				{
					OFFSET 0 0 0
					CHANNELS 3 Zrotation Yrotation Xrotation
					JOINT RightArm
					{
						OFFSET -3.06467 1.61290 -0.28813
						CHANNELS 3 Zrotation Yrotation Xrotation
						JOINT RightForeArm
						{
							OFFSET -5.23200 -0.00000 -0.00000
							CHANNELS 3 Zrotation Yrotation Xrotation
							JOINT RightHand
							{
								OFFSET -3.65641 -0.00000 0.00000
								CHANNELS 3 Zrotation Yrotation Xrotation
								JOINT RightFingerBase
								{
									OFFSET 0 0 0
									CHANNELS 3 Zrotation Yrotation Xrotation
									JOINT RightHandIndex1
									{
										OFFSET -0.65681 -0.00000 0.00000
										CHANNELS 3 Zrotation Yrotation Xrotation
										End Site
										{
											OFFSET -0.52953 -0.00000 0.00000
										}
									}
								}
								JOINT RThumb
								{
									OFFSET 0 0 0
									CHANNELS 3 Zrotation Yrotation Xrotation
									End Site
									{
										OFFSET -0.53762 -0.00000 0.53762
									}
								}
							}
						}
					}
				}
			}
		}
	}
}
MOTION
Frames: 5
Frame Time: 0.0454545
0.00 0.00 0.00 172.1470 2.7960 -162.0190 0.0000 0.0000 0.0000 -31.0693 -10.4400 -11.3351 6.5970 14.9829 47.3333 0.2022 -12.3060 -11.1455 0.7653 -5.5864 -15.5890 0.0000 0.0000 0.0000 2.6855 12.8064 -69.9179 -11.2972 -18.0775 63.7431 -0.5877 3.3012 -13.7327 -3.8675 11.9819 -35.6681 -4.1169 -1.8860 17.1576 0.6335 -3.0384 0.8615 3.7348 -1.2031 -8.4428 -0.9728 0.2294 -19.2029 -2.5662 1.1166 2.8807 -0.5387 0.5344 3.9086 0.0000 -0.0000 0.0000 -89.8140 5.2978 53.6728 125.1364 -54.7782 -89.8955 -0.0000 0.0000 -11.6246 26.4021 -16.4140 -7.9856 -7.1250 0.0000 -0.0000 -0.9184 11.7763 0.7117 0.0000 -0.0000 0.0000 89.4393 -31.4167 20.6035 -90.2770 59.9997 -60.2399 0.0000 -0.0000 -8.6775 -28.7788 0.3098 -0.1701 7.1250 -0.0000 -0.0000 -1.7386 -29.6242 -0.6522
0.00 0.00 0.00 170.8460 2.6808 -163.5940 0.0000 0.0000 0.0000 -31.2882 -9.9900 -10.4275 10.2135 17.5282 60.1995 -0.3104 -11.1397 -1.5334 0.1494 -2.4904 -6.8629 0.0000 0.0000 0.0000 6.0987 11.9954 -57.0606 -8.8758 -16.7271 55.6597 -0.2836 2.3850 -9.5154 -1.9783 8.8207 -25.2360 -6.1541 -1.9692 14.5155 0.4443 -3.5135 -0.0424 4.6775 -1.4084 -7.7992 -0.8689 0.6113 -18.1609 -2.7580 1.4959 4.6894 -0.5853 0.6303 4.3210 -0.0000 -0.0000 0.0000 -87.6528 11.9372 51.8691 114.2428 -57.6585 -80.8298 -0.0000 0.0000 -12.7690 25.3005 -16.3530 -7.5811 -7.1250 0.0000 -0.0000 -1.6443 12.0042 1.2669 -0.0000 -0.0000 0.0000 91.0852 -27.6484 21.7408 -93.3886 59.9566 -62.9342 0.0000 -0.0000 -7.7496 -28.4667 1.4655 -0.7945 7.1250 -0.0000 -0.0000 -1.4672 -28.3117 -0.5960
0.00 0.00 0.00 174.7120 0.4470 -165.1300 0.0000 0.0000 0.0000 -23.8083 -9.8295 -18.1195 15.8402 19.5800 77.7552 -0.0705 -8.6008 -4.5389 0.1264 -2.2916 -6.3123 0.0000 0.0000 0.0000 14.9106 9.8762 -44.7984 -8.7306 -16.6312 55.1538 -0.9674 -1.0416 -18.9883 -1.6379 8.0671 -22.9180 -3.0251 -1.7248 14.8093 1.7654 -2.7548 -0.4576 4.2198 -1.1868 -8.5889 -1.2552 -0.0385 -17.1226 -3.0446 0.7079 4.7747 -0.6814 0.2159 4.1803 -0.0000 -0.0000 0.0000 -87.7581 15.9299 49.2889 102.5682 -59.3946 -70.8622 -0.0000 0.0000 -12.1897 26.6863 -16.0579 -7.9154 -7.1250 0.0000 -0.0000 -0.6965 12.1242 0.5347 -0.0000 -0.0000 0.0000 90.7225 -22.9362 23.7828 -97.0739 59.8101 -66.1223 0.0000 -0.0000 -6.6018 -27.7796 1.6852 -0.8876 7.1250 -0.0000 -0.0000 -0.9300 -28.0747 -0.3829
0.00 0.00 0.00 179.4160 -1.1033 -165.6730 0.0000 0.0000 0.0000 -13.6181 -10.4940 -33.3499 21.6188 19.9371 94.7378 0.1695 -8.0403 -8.6428 0.0475 -1.4071 -3.8698 0.0000 0.0000 0.0000 23.5850 7.6825 -31.7758 -8.1206 -16.2072 52.9958 -1.7944 -3.6976 -26.8538 -2.5287 9.8899 -28.6210 0.2156 -0.6027 14.3493 3.0010 -0.6115 -1.1217 3.2565 -0.2691 -9.2614 -1.9648 -1.3893 -17.3910 -2.0810 -1.0346 5.7572 -0.4218 -0.6279 4.5172 0.0000 -0.0000 0.0000 -86.5348 19.9646 47.0919 90.3002 -59.9997 -60.2600 -0.0000 0.0000 -10.5375 28.3073 -15.1699 -8.0227 -7.1250 0.0000 -0.0000 0.4709 12.8636 -0.3543 0.0000 -0.0000 0.0000 89.2241 -16.8310 27.3649 -104.2905 59.2141 -72.3432 0.0000 -0.0000 -5.2683 -29.0993 0.8861 -0.4932 7.1250 -0.0000 -0.0000 -1.9750 -28.9632 -0.7720
0.00 0.00 0.00 182.1830 -2.2447 -165.6510 0.0000 0.0000 0.0000 -7.2068 -12.1156 -50.2945 22.4535 19.8551 97.1902 0.3161 -9.9704 -11.4006 0.1556 -2.5419 -7.0059 0.0000 0.0000 0.0000 29.2112 1.0674 -16.3973 -5.9388 -14.3688 44.7356 -1.8143 -2.0538 -26.2624 -3.9971 12.1565 -36.2879 2.2868 1.0343 11.8133 3.1373 1.8634 -2.0314 1.7104 0.8186 -8.8580 -3.2359 -3.1229 -18.2860 -0.5821 -3.4270 7.7499 -0.0044 -1.8573 5.3248 -0.0000 0.0000 0.0000 -80.7954 27.6625 50.1710 97.1240 -59.8074 -66.1655 -0.0000 0.0000 -10.5168 25.9671 -15.5155 -7.4225 -7.1250 0.0000 -0.0000 -1.1280 12.8222 0.8497 -0.0000 0.0000 0.0000 86.4574 -13.0930 32.9911 -119.3518 56.4802 -85.1190 0.0000 -0.0000 -5.9048 -28.3042 1.7700 -0.9530 7.1250 -0.0000 -0.0000 -1.3334 -27.9688 -0.5524
